HIERARCHY
ROOT hip
{
  OFFSET 0 0 0
  CHANNELS 6 Xposition Yposition Zposition Zrotation Yrotation Xrotation
  JOINT abdomen
  {
    OFFSET 0 20.6881 -0.73152
    CHANNELS 3 Zrotation Xrotation Yrotation
    JOINT chest
    {
      OFFSET 0 11.7043 -0.48768
      CHANNELS 3 Zrotation Xrotation Yrotation
      JOINT neck
      {
        OFFSET 0 22.1894 -2.19456
        CHANNELS 3 Zrotation Xrotation Yrotation
        JOINT head
        {
          OFFSET -0.24384 7.07133 1.2192
          CHANNELS 3 Zrotation Xrotation Yrotation
          JOINT leftEye
          {
            OFFSET 4.14528 8.04674 8.04672
            CHANNELS 3 Zrotation Xrotation Yrotation
            End Site
            {
              OFFSET 1 0 0
            }
          }
          JOINT rightEye
          {
            OFFSET -3.6576 8.04674 8.04672
            CHANNELS 3 Zrotation Xrotation Yrotation
            End Site
            {
              OFFSET 1 0 0
            }
          }
        }
      }
      JOINT rCollar
      {
        OFFSET -2.68224 19.2634 -4.8768
        CHANNELS 3 Zrotation Xrotation Yrotation
        JOINT rShldr
        {
          OFFSET -8.77824 -1.95073 1.46304
          CHANNELS 3 Zrotation Xrotation Yrotation
          JOINT rForeArm
          {
            OFFSET -28.1742 -1.7115 0.48768
            CHANNELS 3 Zrotation Xrotation Yrotation
            JOINT rHand
            {
              OFFSET -22.5879 0.773209 7.07136
              CHANNELS 3 Zrotation Xrotation Yrotation
              JOINT rThumb1
              {
                OFFSET -1.2192 -0.487915 3.41376
                CHANNELS 3 Zrotation Xrotation Yrotation
                JOINT rThumb2
                {
                  OFFSET -3.37035 -0.52449 3.41376
                  CHANNELS 3 Zrotation Xrotation Yrotation
                  End Site
                  {
                    OFFSET -1.78271 -1.18214 1.43049
                  }
                }
              }
              JOINT rIndex1
              {
                OFFSET -7.75947 0.938293 5.60832
                CHANNELS 3 Zrotation Xrotation Yrotation
                JOINT rIndex2
                {
                  OFFSET -2.54057 -0.884171 1.56538
                  CHANNELS 3 Zrotation Xrotation Yrotation
                  End Site
                  {
                    OFFSET -1.62519 -0.234802 1.16502
                  }
                }
              }
              JOINT rMid1
              {
                OFFSET -8.24714 1.18213 3.41376
                CHANNELS 3 Zrotation Xrotation Yrotation
                JOINT rMid2
                {
                  OFFSET -3.10165 -0.590103 1.0647
                  CHANNELS 3 Zrotation Xrotation Yrotation
                  End Site
                  {
                    OFFSET -2.48547 -0.328903 0.83742
                  }
                }
              }
              JOINT rRing1
              {
                OFFSET -8.82822 0.546677 1.51678
                CHANNELS 3 Zrotation Xrotation Yrotation
                JOINT rRing2
                {
                  OFFSET -2.60934 -0.819778 -0.0198488
                  CHANNELS 3 Zrotation Xrotation Yrotation
                  End Site
                  {
                    OFFSET -2.33842 -0.294052 0.168128
                  }
                }
              }
              JOINT rPinky1
              {
                OFFSET -8.27202 -0.0477905 -0.4584
                CHANNELS 3 Zrotation Xrotation Yrotation
                JOINT rPinky2
                {
                  OFFSET -1.82734 -0.647385 -0.700984
                  CHANNELS 3 Zrotation Xrotation Yrotation
                  End Site
                  {
                    OFFSET -1.69225 -0.51767 -0.607171
                  }
                }
              }
            }
          }
        }
      }
      JOINT lCollar
      {
        OFFSET 2.68224 19.2634 -4.8768
        CHANNELS 3 Zrotation Xrotation Yrotation
        JOINT lShldr
        {
          OFFSET 8.77824 -1.95073 1.46304
          CHANNELS 3 Zrotation Xrotation Yrotation
          JOINT lForeArm
          {
            OFFSET 28.1742 -1.7115 0.48768
            CHANNELS 3 Zrotation Xrotation Yrotation
            JOINT lHand
            {
              OFFSET 22.5879 0.773209 7.07136
              CHANNELS 3 Zrotation Xrotation Yrotation
              JOINT lThumb1
              {
                OFFSET 1.2192 -0.487915 3.41376
                CHANNELS 3 Zrotation Xrotation Yrotation
                JOINT lThumb2
                {
                  OFFSET 3.37035 -0.52449 3.41376
                  CHANNELS 3 Zrotation Xrotation Yrotation
                  End Site
                  {
                    OFFSET 1.78271 -1.18214 1.43049
                  }
                }
              }
              JOINT lIndex1
              {
                OFFSET 7.75947 0.938293 5.60832
                CHANNELS 3 Zrotation Xrotation Yrotation
                JOINT lIndex2
                {
                  OFFSET 2.54057 -0.884171 1.56538
                  CHANNELS 3 Zrotation Xrotation Yrotation
                  End Site
                  {
                    OFFSET 1.62519 -0.234802 1.16502
                  }
                }
              }
              JOINT lMid1
              {
                OFFSET 8.24714 1.18213 3.41376
                CHANNELS 3 Zrotation Xrotation Yrotation
                JOINT lMid2
                {
                  OFFSET 3.10165 -0.590103 1.0647
                  CHANNELS 3 Zrotation Xrotation Yrotation
                  End Site
                  {
                    OFFSET 2.48547 -0.328903 0.83742
                  }
                }
              }
              JOINT lRing1
              {
                OFFSET 8.82822 0.546677 1.51678
                CHANNELS 3 Zrotation Xrotation Yrotation
                JOINT lRing2
                {
                  OFFSET 2.60934 -0.819778 -0.0198488
                  CHANNELS 3 Zrotation Xrotation Yrotation
                  End Site
                  {
                    OFFSET 2.33842 -0.294052 0.168128
                  }
                }
              }
              JOINT lPinky1
              {
                OFFSET 8.27202 -0.0477905 -0.4584
                CHANNELS 3 Zrotation Xrotation Yrotation
                JOINT lPinky2
                {
                  OFFSET 1.82734 -0.647385 -0.700984
                  CHANNELS 3 Zrotation Xrotation Yrotation
                  End Site
                  {
                    OFFSET 1.69225 -0.51767 -0.607171
                  }
                }
              }
            }
          }
        }
      }
    }
  }
  JOINT rButtock
  {
    OFFSET -8.77824 4.35084 1.2192
    CHANNELS 3 Zrotation Xrotation Yrotation
    JOINT rThigh
    {
      OFFSET 0 -1.70687 -2.19456
      CHANNELS 3 Zrotation Xrotation Yrotation
      JOINT rShin
      {
        OFFSET 0 -36.8199 0.73152
        CHANNELS 3 Zrotation Xrotation Yrotation
        JOINT rFoot
        {
          OFFSET 0.73152 -45.1104 -5.12064
          CHANNELS 3 Zrotation Xrotation Yrotation
          End Site
          {
            OFFSET -1.1221 -3.69964 12.103
          }
        }
      }
    }
  }
  JOINT lButtock
  {
    OFFSET 8.77824 4.35084 1.2192
    CHANNELS 3 Zrotation Xrotation Yrotation
    JOINT lThigh
    {
      OFFSET 0 -1.70687 -2.19456
      CHANNELS 3 Zrotation Xrotation Yrotation
      JOINT lShin
      {
        OFFSET 0 -36.8199 0.73152
        CHANNELS 3 Zrotation Xrotation Yrotation
        JOINT lFoot
        {
          OFFSET -0.73152 -45.1104 -5.12064
          CHANNELS 3 Zrotation Xrotation Yrotation
          End Site
          {
            OFFSET 1.1221 -3.69964 12.103
          }
        }
      }
    }
  }
}
MOTION
Frames:	6
Frame Time:	0.00833333
-92.3013 69.662 -12.5496 -193.562 22.7323 -173.931 -20.8411 43.7828 1.13158 -3.55873 -8.44445 -0.0687416 -13.0653 13.4339 -4.27364 41.9698 -55.6838 18.0253 -0.0 0.0 0.0 -0.0 0.0 0.0 -2.38502e-13 -9.54263e-14 -1.26228e-14 53.5408 -1.80347 14.797 -28.3836 -33.9794 73.666 -1.0615 -27.9118 -4.2696 -5.17066e-10 -2.60873e-09 -3.06521e-09 -8.35344e-10 -4.61065e-09 -5.29971e-09 -5.17069e-10 -2.60872e-09 -3.06522e-09 7.73091 5.47488 0.417314 -5.17071e-10 -2.60872e-09 -3.06521e-09 2.90554 0.965183 0.102902 -5.17055e-10 -2.60872e-09 -3.06521e-09 10.2786 0.731801 0.0259123 -5.17063e-10 -2.60872e-09 -3.06521e-09 2.22167 -0.733487 -0.20892 -2.38597e-13 -9.54077e-14 -1.28713e-14 -60.4434 8.38793 12.6809 27.7988 -29.5237 -66.4893 0.915097 -26.0957 3.9472 7.30345e-10 3.29403e-09 4.73956e-09 1.16177e-09 5.54978e-09 8.20059e-09 7.30343e-10 3.29404e-09 4.73957e-09 -7.73091 5.47488 -0.417314 7.30348e-10 3.29404e-09 4.73957e-09 -2.90554 0.965183 -0.102902 7.30344e-10 3.29403e-09 4.73956e-09 -10.2786 0.731801 -0.0259123 7.3035e-10 3.29403e-09 4.73955e-09 -2.22167 -0.733487 0.20892 -2.03217e-16 0.0 -3.88251e-19 -37.0834 -56.5405 -39.3765 -3.90729 76.3053 3.38341 0.770495 12.3878 -25.8229 2.03217e-16 0.0 3.88251e-19 25.2205 -20.6542 15.4848 0.03368 41.1402 -1.96447 -0.961319 10.3617 12.2251
-90.5015 70.0899 -12.558 -193.407 22.2604 -174.371 -20.6078 43.8631 0.899404 -3.19727 -8.30993 -0.0642342 -13.0956 13.7915 -4.24961 42.2979 -55.4081 17.9343 -0.0 0.0 0.0 -0.0 0.0 0.0 -2.61302e-13 -3.18351e-14 1.65988e-13 53.0641 -2.81502 14.4517 -28.4237 -34.8737 75.1475 -1.13291 -28.7607 -4.42312 -1.5026e-09 -2.23753e-09 -3.45668e-09 -2.52487e-09 -4.03087e-09 -5.99738e-09 -1.5026e-09 -2.23753e-09 -3.45669e-09 7.73091 5.47488 0.417314 -1.5026e-09 -2.23753e-09 -3.45668e-09 2.90554 0.965183 0.102902 -1.50259e-09 -2.23753e-09 -3.45668e-09 10.2786 0.731801 0.0259123 -1.5026e-09 -2.23753e-09 -3.45667e-09 2.22167 -0.733487 -0.20892 -2.61406e-13 -3.18263e-14 1.65692e-13 -60.3437 9.89585 12.3677 27.8045 -29.5549 -66.5458 0.889316 -25.7622 3.88895 1.80305e-11 1.85186e-09 4.13245e-09 -5.59671e-11 3.07021e-09 7.14074e-09 1.8027e-11 1.85186e-09 4.13246e-09 -7.73091 5.47488 -0.417314 1.80336e-11 1.85186e-09 4.13246e-09 -2.90554 0.965183 -0.102902 1.80297e-11 1.85186e-09 4.13246e-09 -10.2786 0.731801 -0.0259123 1.80366e-11 1.85186e-09 4.13244e-09 -2.22167 -0.733487 0.20892 -2.03217e-16 0.0 -3.88251e-19 -35.313 -55.715 -38.9274 -3.74156 75.889 3.26679 0.822213 12.4647 -25.2319 2.03217e-16 0.0 3.88251e-19 26.1341 -22.8456 18.0643 0.140897 44.2979 -1.94658 -0.572616 10.4051 10.0891
-88.9423 70.5513 -12.4123 -193.033 21.3268 -174.102 -20.1771 44.1707 0.676055 -2.63791 -8.12836 -0.0238689 -13.3106 14.045 -4.29146 43.106 -55.2098 18.1191 -0.0 0.0 0.0 -0.0 0.0 0.0 -2.46236e-13 1.02777e-13 4.57888e-13 52.4457 -4.08006 14.0431 -28.442 -35.7605 76.5798 -1.22785 -29.8103 -4.61758 -3.03944e-09 -1.52091e-09 -4.26158e-09 -5.15623e-09 -2.88859e-09 -7.42082e-09 -3.03943e-09 -1.52092e-09 -4.26159e-09 7.73091 5.47488 0.417314 -3.03944e-09 -1.52091e-09 -4.26158e-09 2.90554 0.965183 0.102902 -3.03943e-09 -1.52091e-09 -4.26158e-09 10.2786 0.731801 0.0259123 -3.03944e-09 -1.52091e-09 -4.26157e-09 2.22167 -0.733487 -0.20892 -2.46334e-13 1.02767e-13 4.57546e-13 -60.0873 11.5354 11.5654 27.7922 -29.4934 -66.4466 0.857021 -25.3311 3.81429 -1.15132e-09 -6.15844e-10 3.23293e-09 -2.05733e-09 -1.17811e-09 5.56895e-09 -1.15133e-09 -6.15842e-10 3.23295e-09 -7.73091 5.47488 -0.417314 -1.15132e-09 -6.15841e-10 3.23294e-09 -2.90554 0.965183 -0.102902 -1.15133e-09 -6.15841e-10 3.23293e-09 -10.2786 0.731801 -0.0259123 -1.15132e-09 -6.15839e-10 3.23291e-09 -2.22167 -0.733487 0.20892 -2.03217e-16 0.0 -3.88251e-19 -33.476 -54.8789 -38.6714 -3.61682 75.591 3.20473 0.752299 12.307 -24.4123 2.03217e-16 0.0 3.88251e-19 27.59 -25.253 21.2562 0.272407 48.1151 -1.948 -0.144985 9.59785 8.53169
-87.3836 70.9715 -12.2078 -192.55 20.2903 -173.877 -19.5952 44.554 0.460338 -2.01471 -7.927 0.0360407 -13.5494 14.25 -4.36811 44.1943 -55.0712 18.4821 -0.0 0.0 0.0 -0.0 0.0 0.0 -1.99864e-13 2.43252e-13 7.28065e-13 51.8486 -5.48501 13.6026 -28.4292 -36.574 77.9247 -1.33768 -30.944 -4.833 -4.4733e-09 -8.17602e-10 -5.02626e-09 -7.6111e-09 -1.76126e-09 -8.77236e-09 -4.47329e-09 -8.17624e-10 -5.02626e-09 7.73091 5.47488 0.417314 -4.4733e-09 -8.17612e-10 -5.02625e-09 2.90554 0.965183 0.102902 -4.47329e-09 -8.17611e-10 -5.02625e-09 10.2786 0.731801 0.0259123 -4.47331e-09 -8.17607e-10 -5.02624e-09 2.22167 -0.733487 -0.20892 -1.99955e-13 2.43224e-13 7.27686e-13 -59.6849 13.2199 10.4867 27.7715 -29.3902 -66.2785 0.823935 -24.8742 3.7359 -2.27162e-09 -2.86813e-09 2.4889e-09 -3.97662e-09 -5.05744e-09 4.26655e-09 -2.27163e-09 -2.86813e-09 2.48892e-09 -7.73091 5.47488 -0.417314 -2.27162e-09 -2.86813e-09 2.4889e-09 -2.90554 0.965183 -0.102902 -2.27163e-09 -2.86813e-09 2.48889e-09 -10.2786 0.731801 -0.0259123 -2.27162e-09 -2.86812e-09 2.48888e-09 -2.22167 -0.733487 0.20892 -2.03217e-16 0.0 -3.88251e-19 -31.732 -54.0884 -38.6931 -3.52395 75.3997 3.18443 0.518716 11.8068 -23.3061 2.03217e-16 0.0 3.88251e-19 29.381 -27.7115 24.7109 0.428328 52.1555 -1.97434 0.227126 8.44471 7.49914
-85.7299 71.3551 -11.9985 -191.962 19.2581 -173.709 -18.9115 44.862 0.253326 -1.46147 -7.73313 0.0992194 -13.6516 14.4622 -4.44843 45.3663 -54.9743 18.9292 -0.0 0.0 0.0 -0.0 0.0 0.0 -1.28746e-13 3.24435e-13 8.41505e-13 51.4412 -6.91483 13.1592 -28.3871 -37.2523 79.1248 -1.45026 -32.0454 -5.04711 -5.14993e-09 -4.86335e-10 -5.29705e-09 -8.77114e-09 -1.22635e-09 -9.2543e-09 -5.14991e-09 -4.86363e-10 -5.29705e-09 7.73091 5.47488 0.417314 -5.14992e-09 -4.8635e-10 -5.29704e-09 2.90554 0.965183 0.102902 -5.14992e-09 -4.86348e-10 -5.29704e-09 10.2786 0.731801 0.0259123 -5.14993e-09 -4.86343e-10 -5.29703e-09 2.22167 -0.733487 -0.20892 -1.28837e-13 3.24399e-13 8.41108e-13 -59.1762 14.8573 9.34648 27.7523 -29.2969 -66.1278 0.794978 -24.4632 3.66594 -2.83677e-09 -3.66404e-09 2.34826e-09 -4.94813e-09 -6.43003e-09 4.01485e-09 -2.83678e-09 -3.66405e-09 2.34828e-09 -7.73091 5.47488 -0.417314 -2.83677e-09 -3.66404e-09 2.34825e-09 -2.90554 0.965183 -0.102902 -2.83677e-09 -3.66404e-09 2.34825e-09 -10.2786 0.731801 -0.0259123 -2.83676e-09 -3.66404e-09 2.34823e-09 -2.22167 -0.733487 0.20892 -2.03217e-16 0.0 -3.88251e-19 -30.2351 -53.398 -39.0696 -3.45667 75.3035 3.19593 0.0991595 10.8476 -21.8627 2.03217e-16 0.0 3.88251e-19 31.1952 -30.119 28.0362 0.610485 55.9828 -2.02925 0.510363 7.45522 6.92306
-84.0316 71.8127 -11.7976 -191.348 18.334 -173.448 -18.0916 45.0701 0.0583529 -0.999663 -7.54804 0.168015 -13.5723 14.7279 -4.53607 46.7009 -54.9438 19.5022 -0.0 0.0 0.0 -0.0 0.0 0.0 8.60992e-17 3.21375e-13 7.09951e-13 51.2654 -8.44506 12.6655 -28.3384 -37.8166 80.1405 -1.57416 -33.2174 -5.27914 -4.72227e-09 -7.87934e-10 -4.86716e-09 -8.04259e-09 -1.71102e-09 -8.50171e-09 -4.72225e-09 -7.87958e-10 -4.86717e-09 7.73091 5.47488 0.417314 -4.72226e-09 -7.87945e-10 -4.86716e-09 2.90554 0.965183 0.102902 -4.72226e-09 -7.87944e-10 -4.86715e-09 10.2786 0.731801 0.0259123 -4.72227e-09 -7.87939e-10 -4.86714e-09 2.22167 -0.733487 -0.20892 -1.56566e-17 3.21346e-13 7.09561e-13 -58.4941 16.5182 8.09176 27.7316 -29.1979 -65.969 0.774486 -24.1625 3.61515 -2.58051e-09 -2.05265e-09 3.34747e-09 -4.52156e-09 -3.66312e-09 5.74455e-09 -2.58052e-09 -2.05265e-09 3.3475e-09 -7.73091 5.47488 -0.417314 -2.58051e-09 -2.05265e-09 3.34747e-09 -2.90554 0.965183 -0.102902 -2.58051e-09 -2.05265e-09 3.34747e-09 -10.2786 0.731801 -0.0259123 -2.5805e-09 -2.05264e-09 3.34745e-09 -2.22167 -0.733487 0.20892 -2.03217e-16 0.0 -3.88251e-19 -29.0352 -52.8091 -39.9575 -3.41521 75.3093 3.24546 -0.507982 9.25305 -20.01 2.03217e-16 0.0 3.88251e-19 32.9404 -32.572 31.1695 0.836611 59.5885 -2.11995 0.733962 6.66897 7.20836
